<svg xmlns="http://www.w3.org/2000/svg" width="13.741" height="15.614" viewBox="0 0 13.741 15.614"><defs><style>.a{fill:#6178a0;}</style></defs><path class="a" d="M10.87,2A4.381,4.381,0,0,0,6.5,6.372V7.621H5.249A1.249,1.249,0,0,0,4,8.87v7.495a1.249,1.249,0,0,0,1.249,1.249H16.492a1.249,1.249,0,0,0,1.249-1.249V8.87a1.249,1.249,0,0,0-1.249-1.249H15.242V6.372a4.358,4.358,0,0,0-4.15-4.327A.625.625,0,0,0,10.87,2Zm0,1.249a3.113,3.113,0,0,1,3.123,3.123V7.621H7.747V6.372A3.113,3.113,0,0,1,10.87,3.249ZM7.123,11.369a1.249,1.249,0,1,1-1.249,1.249A1.249,1.249,0,0,1,7.123,11.369Zm3.747,0a1.249,1.249,0,1,1-1.249,1.249A1.249,1.249,0,0,1,10.87,11.369Zm3.747,0a1.249,1.249,0,1,1-1.249,1.249A1.249,1.249,0,0,1,14.618,11.369Z" transform="translate(-4 -2)"/></svg>